<mxfile host="65bd71144e">
    <diagram id="sED9ADRcN6IbE8D5TVqb" name="Page-1">
        <mxGraphModel dx="2061" dy="1643" grid="1" gridSize="10" guides="1" tooltips="1" connect="1" arrows="1" fold="1" page="1" pageScale="1" pageWidth="1169" pageHeight="827" math="0" shadow="0">
            <root>
                <mxCell id="0"/>
                <mxCell id="1" parent="0"/>
                <mxCell id="108" value="&lt;font style=&quot;font-size: 12px&quot;&gt;HAS_INPUT&lt;/font&gt;" style="edgeStyle=none;html=1;fontSize=14;" parent="1" source="110" target="111" edge="1">
                    <mxGeometry relative="1" as="geometry"/>
                </mxCell>
                <mxCell id="109" value="HAS_OUTPUT" style="edgeStyle=none;html=1;fontSize=12;" parent="1" source="110" target="112" edge="1">
                    <mxGeometry relative="1" as="geometry"/>
                </mxCell>
                <mxCell id="143" value="IMPLEMENTED" style="edgeStyle=none;html=1;" parent="1" source="110" target="142" edge="1">
                    <mxGeometry relative="1" as="geometry"/>
                </mxCell>
                <mxCell id="183" value="&lt;span style=&quot;font-size: 12px&quot;&gt;HAS_INPUT&lt;/span&gt;" style="edgeStyle=none;html=1;" parent="1" source="110" target="182" edge="1">
                    <mxGeometry relative="1" as="geometry"/>
                </mxCell>
                <mxCell id="110" value="&lt;font style=&quot;font-size: 14px&quot;&gt;&lt;b&gt;Function&lt;/b&gt;&lt;/font&gt;&lt;br&gt;- name: &quot;addition&quot;&lt;br&gt;- uuid: &quot;ee26f2e5-60cb-45e3-b4b2-5d5a29f73795&quot;" style="ellipse;whiteSpace=wrap;html=1;aspect=fixed;fillColor=#76608a;fontColor=#ffffff;strokeColor=#432D57;" parent="1" vertex="1">
                    <mxGeometry x="280" y="40" width="160" height="160" as="geometry"/>
                </mxCell>
                <mxCell id="111" value="&lt;font style=&quot;font-size: 14px&quot;&gt;&lt;b&gt;Input&lt;/b&gt;&lt;/font&gt;&lt;br&gt;- name: &quot;a&quot;" style="ellipse;whiteSpace=wrap;html=1;aspect=fixed;fillColor=#76608a;fontColor=#ffffff;strokeColor=#432D57;" parent="1" vertex="1">
                    <mxGeometry x="40" y="60" width="120" height="120" as="geometry"/>
                </mxCell>
                <mxCell id="112" value="&lt;font style=&quot;font-size: 14px&quot;&gt;&lt;b&gt;Output&lt;/b&gt;&lt;/font&gt;&lt;br&gt;- name: &quot;result&quot;" style="ellipse;whiteSpace=wrap;html=1;aspect=fixed;fillColor=#76608a;fontColor=#ffffff;strokeColor=#432D57;" parent="1" vertex="1">
                    <mxGeometry x="560" y="60" width="120" height="120" as="geometry"/>
                </mxCell>
                <mxCell id="142" value="&lt;font style=&quot;font-size: 14px&quot;&gt;&lt;b&gt;NativeCall&lt;/b&gt;&lt;/font&gt;&lt;br&gt;- cypher: &quot;RETURN a + b AS result&quot;" style="ellipse;whiteSpace=wrap;html=1;aspect=fixed;fillColor=#6d8764;fontColor=#ffffff;strokeColor=#3A5431;" parent="1" vertex="1">
                    <mxGeometry x="280" y="280" width="160" height="160" as="geometry"/>
                </mxCell>
                <mxCell id="182" value="&lt;font style=&quot;font-size: 14px&quot;&gt;&lt;b&gt;Input&lt;/b&gt;&lt;/font&gt;&lt;br&gt;- name: &quot;b&quot;" style="ellipse;whiteSpace=wrap;html=1;aspect=fixed;fillColor=#76608a;fontColor=#ffffff;strokeColor=#432D57;" parent="1" vertex="1">
                    <mxGeometry x="40" y="260" width="120" height="120" as="geometry"/>
                </mxCell>
                <mxCell id="184" value="&lt;font style=&quot;font-size: 12px&quot;&gt;HAS_INPUT&lt;/font&gt;" style="edgeStyle=none;html=1;fontSize=14;" parent="1" source="188" target="189" edge="1">
                    <mxGeometry relative="1" as="geometry"/>
                </mxCell>
                <mxCell id="185" value="HAS_OUTPUT" style="edgeStyle=none;html=1;fontSize=12;" parent="1" source="188" target="190" edge="1">
                    <mxGeometry relative="1" as="geometry"/>
                </mxCell>
                <mxCell id="186" value="IMPLEMENTED" style="edgeStyle=none;html=1;" parent="1" source="188" target="191" edge="1">
                    <mxGeometry relative="1" as="geometry"/>
                </mxCell>
                <mxCell id="187" value="&lt;span style=&quot;font-size: 12px&quot;&gt;HAS_INPUT&lt;/span&gt;" style="edgeStyle=none;html=1;" parent="1" source="188" target="192" edge="1">
                    <mxGeometry relative="1" as="geometry"/>
                </mxCell>
                <mxCell id="188" value="&lt;font style=&quot;font-size: 14px&quot;&gt;&lt;b&gt;Function&lt;/b&gt;&lt;/font&gt;&lt;br&gt;- name: &quot;subtraction&quot;&lt;br&gt;- uuid: &quot;26824b71-a09c-4a70-a928-c70eb537eaf9&quot;" style="ellipse;whiteSpace=wrap;html=1;aspect=fixed;fillColor=#76608a;fontColor=#ffffff;strokeColor=#432D57;" parent="1" vertex="1">
                    <mxGeometry x="280" y="480" width="160" height="160" as="geometry"/>
                </mxCell>
                <mxCell id="189" value="&lt;font style=&quot;font-size: 14px&quot;&gt;&lt;b&gt;Input&lt;/b&gt;&lt;/font&gt;&lt;br&gt;- name: &quot;a&quot;" style="ellipse;whiteSpace=wrap;html=1;aspect=fixed;fillColor=#76608a;fontColor=#ffffff;strokeColor=#432D57;" parent="1" vertex="1">
                    <mxGeometry x="40" y="500" width="120" height="120" as="geometry"/>
                </mxCell>
                <mxCell id="190" value="&lt;font style=&quot;font-size: 14px&quot;&gt;&lt;b&gt;Output&lt;/b&gt;&lt;/font&gt;&lt;br&gt;- name: &quot;result&quot;" style="ellipse;whiteSpace=wrap;html=1;aspect=fixed;fillColor=#76608a;fontColor=#ffffff;strokeColor=#432D57;" parent="1" vertex="1">
                    <mxGeometry x="560" y="500" width="120" height="120" as="geometry"/>
                </mxCell>
                <mxCell id="191" value="&lt;font style=&quot;font-size: 14px&quot;&gt;&lt;b&gt;NativeCall&lt;/b&gt;&lt;/font&gt;&lt;br&gt;- cypher: &quot;RETURN a - b AS result&quot;" style="ellipse;whiteSpace=wrap;html=1;aspect=fixed;fillColor=#6d8764;fontColor=#ffffff;strokeColor=#3A5431;" parent="1" vertex="1">
                    <mxGeometry x="280" y="720" width="160" height="160" as="geometry"/>
                </mxCell>
                <mxCell id="192" value="&lt;font style=&quot;font-size: 14px&quot;&gt;&lt;b&gt;Input&lt;/b&gt;&lt;/font&gt;&lt;br&gt;- name: &quot;b&quot;" style="ellipse;whiteSpace=wrap;html=1;aspect=fixed;fillColor=#76608a;fontColor=#ffffff;strokeColor=#432D57;" parent="1" vertex="1">
                    <mxGeometry x="40" y="700" width="120" height="120" as="geometry"/>
                </mxCell>
                <mxCell id="193" value="&lt;font style=&quot;font-size: 12px&quot;&gt;HAS_INPUT&lt;/font&gt;" style="edgeStyle=none;html=1;fontSize=14;" parent="1" source="197" target="198" edge="1">
                    <mxGeometry relative="1" as="geometry"/>
                </mxCell>
                <mxCell id="194" value="HAS_OUTPUT" style="edgeStyle=none;html=1;fontSize=12;" parent="1" source="197" target="199" edge="1">
                    <mxGeometry relative="1" as="geometry"/>
                </mxCell>
                <mxCell id="195" value="IMPLEMENTED" style="edgeStyle=none;html=1;" parent="1" source="197" target="200" edge="1">
                    <mxGeometry relative="1" as="geometry"/>
                </mxCell>
                <mxCell id="196" value="&lt;span style=&quot;font-size: 12px&quot;&gt;HAS_INPUT&lt;/span&gt;" style="edgeStyle=none;html=1;" parent="1" source="197" target="201" edge="1">
                    <mxGeometry relative="1" as="geometry"/>
                </mxCell>
                <mxCell id="197" value="&lt;font style=&quot;font-size: 14px&quot;&gt;&lt;b&gt;Function&lt;/b&gt;&lt;/font&gt;&lt;br&gt;- name: &quot;multiplication&quot;&lt;br&gt;- uuid: &quot;ef325176-a97b-405e-9c7b-2ad5bdd2c8c0&quot;" style="ellipse;whiteSpace=wrap;html=1;aspect=fixed;fillColor=#76608a;fontColor=#ffffff;strokeColor=#432D57;" parent="1" vertex="1">
                    <mxGeometry x="280" y="920" width="160" height="160" as="geometry"/>
                </mxCell>
                <mxCell id="198" value="&lt;font style=&quot;font-size: 14px&quot;&gt;&lt;b&gt;Input&lt;/b&gt;&lt;/font&gt;&lt;br&gt;- name: &quot;a&quot;" style="ellipse;whiteSpace=wrap;html=1;aspect=fixed;fillColor=#76608a;fontColor=#ffffff;strokeColor=#432D57;" parent="1" vertex="1">
                    <mxGeometry x="40" y="940" width="120" height="120" as="geometry"/>
                </mxCell>
                <mxCell id="199" value="&lt;font style=&quot;font-size: 14px&quot;&gt;&lt;b&gt;Output&lt;/b&gt;&lt;/font&gt;&lt;br&gt;- name: &quot;result&quot;" style="ellipse;whiteSpace=wrap;html=1;aspect=fixed;fillColor=#76608a;fontColor=#ffffff;strokeColor=#432D57;" parent="1" vertex="1">
                    <mxGeometry x="560" y="940" width="120" height="120" as="geometry"/>
                </mxCell>
                <mxCell id="200" value="&lt;font style=&quot;font-size: 14px&quot;&gt;&lt;b&gt;NativeCall&lt;/b&gt;&lt;/font&gt;&lt;br&gt;- cypher: &quot;RETURN a * b AS result&quot;" style="ellipse;whiteSpace=wrap;html=1;aspect=fixed;fillColor=#6d8764;fontColor=#ffffff;strokeColor=#3A5431;" parent="1" vertex="1">
                    <mxGeometry x="280" y="1160" width="160" height="160" as="geometry"/>
                </mxCell>
                <mxCell id="201" value="&lt;font style=&quot;font-size: 14px&quot;&gt;&lt;b&gt;Input&lt;/b&gt;&lt;/font&gt;&lt;br&gt;- name: &quot;b&quot;" style="ellipse;whiteSpace=wrap;html=1;aspect=fixed;fillColor=#76608a;fontColor=#ffffff;strokeColor=#432D57;" parent="1" vertex="1">
                    <mxGeometry x="40" y="1140" width="120" height="120" as="geometry"/>
                </mxCell>
                <mxCell id="202" value="&lt;font style=&quot;font-size: 12px&quot;&gt;HAS_INPUT&lt;/font&gt;" style="edgeStyle=none;html=1;fontSize=14;" parent="1" source="206" target="207" edge="1">
                    <mxGeometry relative="1" as="geometry"/>
                </mxCell>
                <mxCell id="203" value="HAS_OUTPUT" style="edgeStyle=none;html=1;fontSize=12;" parent="1" source="206" target="208" edge="1">
                    <mxGeometry relative="1" as="geometry"/>
                </mxCell>
                <mxCell id="204" value="IMPLEMENTED" style="edgeStyle=none;html=1;" parent="1" source="206" target="209" edge="1">
                    <mxGeometry relative="1" as="geometry"/>
                </mxCell>
                <mxCell id="205" value="&lt;span style=&quot;font-size: 12px&quot;&gt;HAS_INPUT&lt;/span&gt;" style="edgeStyle=none;html=1;" parent="1" source="206" target="210" edge="1">
                    <mxGeometry relative="1" as="geometry"/>
                </mxCell>
                <mxCell id="206" value="&lt;font style=&quot;font-size: 14px&quot;&gt;&lt;b&gt;Function&lt;/b&gt;&lt;/font&gt;&lt;br&gt;- name: &quot;division&quot;&lt;br&gt;- uuid: &quot;ea7815ff-44b3-4c1d-afea-bfda1bbccf86&quot;" style="ellipse;whiteSpace=wrap;html=1;aspect=fixed;fillColor=#76608a;fontColor=#ffffff;strokeColor=#432D57;" parent="1" vertex="1">
                    <mxGeometry x="280" y="1360" width="160" height="160" as="geometry"/>
                </mxCell>
                <mxCell id="207" value="&lt;font style=&quot;font-size: 14px&quot;&gt;&lt;b&gt;Input&lt;/b&gt;&lt;/font&gt;&lt;br&gt;- name: &quot;a&quot;" style="ellipse;whiteSpace=wrap;html=1;aspect=fixed;fillColor=#76608a;fontColor=#ffffff;strokeColor=#432D57;" parent="1" vertex="1">
                    <mxGeometry x="40" y="1380" width="120" height="120" as="geometry"/>
                </mxCell>
                <mxCell id="208" value="&lt;font style=&quot;font-size: 14px&quot;&gt;&lt;b&gt;Output&lt;/b&gt;&lt;/font&gt;&lt;br&gt;- name: &quot;result&quot;" style="ellipse;whiteSpace=wrap;html=1;aspect=fixed;fillColor=#76608a;fontColor=#ffffff;strokeColor=#432D57;" parent="1" vertex="1">
                    <mxGeometry x="560" y="1380" width="120" height="120" as="geometry"/>
                </mxCell>
                <mxCell id="209" value="&lt;font style=&quot;font-size: 14px&quot;&gt;&lt;b&gt;NativeCall&lt;/b&gt;&lt;/font&gt;&lt;br&gt;- cypher: &quot;RETURN a / b AS result&quot;" style="ellipse;whiteSpace=wrap;html=1;aspect=fixed;fillColor=#6d8764;fontColor=#ffffff;strokeColor=#3A5431;" parent="1" vertex="1">
                    <mxGeometry x="280" y="1600" width="160" height="160" as="geometry"/>
                </mxCell>
                <mxCell id="210" value="&lt;font style=&quot;font-size: 14px&quot;&gt;&lt;b&gt;Input&lt;/b&gt;&lt;/font&gt;&lt;br&gt;- name: &quot;b&quot;" style="ellipse;whiteSpace=wrap;html=1;aspect=fixed;fillColor=#76608a;fontColor=#ffffff;strokeColor=#432D57;" parent="1" vertex="1">
                    <mxGeometry x="40" y="1580" width="120" height="120" as="geometry"/>
                </mxCell>
                <mxCell id="211" value="&lt;font style=&quot;font-size: 12px&quot;&gt;HAS_INPUT&lt;/font&gt;" style="edgeStyle=none;html=1;fontSize=14;" parent="1" source="215" target="216" edge="1">
                    <mxGeometry relative="1" as="geometry"/>
                </mxCell>
                <mxCell id="212" value="HAS_OUTPUT" style="edgeStyle=none;html=1;fontSize=12;" parent="1" source="215" target="217" edge="1">
                    <mxGeometry relative="1" as="geometry"/>
                </mxCell>
                <mxCell id="213" value="IMPLEMENTED" style="edgeStyle=none;html=1;" parent="1" source="215" target="218" edge="1">
                    <mxGeometry relative="1" as="geometry"/>
                </mxCell>
                <mxCell id="214" value="&lt;span style=&quot;font-size: 12px&quot;&gt;HAS_INPUT&lt;/span&gt;" style="edgeStyle=none;html=1;" parent="1" source="215" target="219" edge="1">
                    <mxGeometry relative="1" as="geometry"/>
                </mxCell>
                <mxCell id="215" value="&lt;font style=&quot;font-size: 14px&quot;&gt;&lt;b&gt;Function&lt;/b&gt;&lt;/font&gt;&lt;br&gt;- name: &quot;modulo division&quot;&lt;br&gt;- uuid: &quot;89f0ae08-7a9b-4aac-b538-22de779f5a05&quot;" style="ellipse;whiteSpace=wrap;html=1;aspect=fixed;fillColor=#76608a;fontColor=#ffffff;strokeColor=#432D57;" parent="1" vertex="1">
                    <mxGeometry x="280" y="1800" width="160" height="160" as="geometry"/>
                </mxCell>
                <mxCell id="216" value="&lt;font style=&quot;font-size: 14px&quot;&gt;&lt;b&gt;Input&lt;/b&gt;&lt;/font&gt;&lt;br&gt;- name: &quot;a&quot;" style="ellipse;whiteSpace=wrap;html=1;aspect=fixed;fillColor=#76608a;fontColor=#ffffff;strokeColor=#432D57;" parent="1" vertex="1">
                    <mxGeometry x="40" y="1820" width="120" height="120" as="geometry"/>
                </mxCell>
                <mxCell id="217" value="&lt;font style=&quot;font-size: 14px&quot;&gt;&lt;b&gt;Output&lt;/b&gt;&lt;/font&gt;&lt;br&gt;- name: &quot;result&quot;" style="ellipse;whiteSpace=wrap;html=1;aspect=fixed;fillColor=#76608a;fontColor=#ffffff;strokeColor=#432D57;" parent="1" vertex="1">
                    <mxGeometry x="560" y="1820" width="120" height="120" as="geometry"/>
                </mxCell>
                <mxCell id="218" value="&lt;font style=&quot;font-size: 14px&quot;&gt;&lt;b&gt;NativeCall&lt;/b&gt;&lt;/font&gt;&lt;br&gt;- cypher: &quot;RETURN a % b AS result&quot;" style="ellipse;whiteSpace=wrap;html=1;aspect=fixed;fillColor=#6d8764;fontColor=#ffffff;strokeColor=#3A5431;" parent="1" vertex="1">
                    <mxGeometry x="280" y="2040" width="160" height="160" as="geometry"/>
                </mxCell>
                <mxCell id="219" value="&lt;font style=&quot;font-size: 14px&quot;&gt;&lt;b&gt;Input&lt;/b&gt;&lt;/font&gt;&lt;br&gt;- name: &quot;b&quot;" style="ellipse;whiteSpace=wrap;html=1;aspect=fixed;fillColor=#76608a;fontColor=#ffffff;strokeColor=#432D57;" parent="1" vertex="1">
                    <mxGeometry x="40" y="2020" width="120" height="120" as="geometry"/>
                </mxCell>
                <mxCell id="220" value="&lt;font style=&quot;font-size: 12px&quot;&gt;HAS_INPUT&lt;/font&gt;" style="edgeStyle=none;html=1;fontSize=14;" parent="1" source="224" target="225" edge="1">
                    <mxGeometry relative="1" as="geometry"/>
                </mxCell>
                <mxCell id="221" value="HAS_OUTPUT" style="edgeStyle=none;html=1;fontSize=12;" parent="1" source="224" target="226" edge="1">
                    <mxGeometry relative="1" as="geometry"/>
                </mxCell>
                <mxCell id="222" value="IMPLEMENTED" style="edgeStyle=none;html=1;" parent="1" source="224" target="227" edge="1">
                    <mxGeometry relative="1" as="geometry"/>
                </mxCell>
                <mxCell id="223" value="&lt;span style=&quot;font-size: 12px&quot;&gt;HAS_INPUT&lt;/span&gt;" style="edgeStyle=none;html=1;" parent="1" source="224" target="228" edge="1">
                    <mxGeometry relative="1" as="geometry"/>
                </mxCell>
                <mxCell id="224" value="&lt;font style=&quot;font-size: 14px&quot;&gt;&lt;b&gt;Function&lt;/b&gt;&lt;/font&gt;&lt;br&gt;- name: &quot;exponentiation&quot;&lt;br&gt;- uuid: &quot;40ae4306-51f3-4176-a2f1-69cd67541244&quot;" style="ellipse;whiteSpace=wrap;html=1;aspect=fixed;fillColor=#76608a;fontColor=#ffffff;strokeColor=#432D57;" parent="1" vertex="1">
                    <mxGeometry x="280" y="2240" width="160" height="160" as="geometry"/>
                </mxCell>
                <mxCell id="225" value="&lt;font style=&quot;font-size: 14px&quot;&gt;&lt;b&gt;Input&lt;/b&gt;&lt;/font&gt;&lt;br&gt;- name: &quot;a&quot;" style="ellipse;whiteSpace=wrap;html=1;aspect=fixed;fillColor=#76608a;fontColor=#ffffff;strokeColor=#432D57;" parent="1" vertex="1">
                    <mxGeometry x="40" y="2260" width="120" height="120" as="geometry"/>
                </mxCell>
                <mxCell id="226" value="&lt;font style=&quot;font-size: 14px&quot;&gt;&lt;b&gt;Output&lt;/b&gt;&lt;/font&gt;&lt;br&gt;- name: &quot;result&quot;" style="ellipse;whiteSpace=wrap;html=1;aspect=fixed;fillColor=#76608a;fontColor=#ffffff;strokeColor=#432D57;" parent="1" vertex="1">
                    <mxGeometry x="560" y="2260" width="120" height="120" as="geometry"/>
                </mxCell>
                <mxCell id="227" value="&lt;font style=&quot;font-size: 14px&quot;&gt;&lt;b&gt;NativeCall&lt;/b&gt;&lt;/font&gt;&lt;br&gt;- cypher: &quot;RETURN a ^ b AS result&quot;" style="ellipse;whiteSpace=wrap;html=1;aspect=fixed;fillColor=#6d8764;fontColor=#ffffff;strokeColor=#3A5431;" parent="1" vertex="1">
                    <mxGeometry x="280" y="2480" width="160" height="160" as="geometry"/>
                </mxCell>
                <mxCell id="228" value="&lt;font style=&quot;font-size: 14px&quot;&gt;&lt;b&gt;Input&lt;/b&gt;&lt;/font&gt;&lt;br&gt;- name: &quot;b&quot;" style="ellipse;whiteSpace=wrap;html=1;aspect=fixed;fillColor=#76608a;fontColor=#ffffff;strokeColor=#432D57;" parent="1" vertex="1">
                    <mxGeometry x="40" y="2460" width="120" height="120" as="geometry"/>
                </mxCell>
                <mxCell id="229" value="&lt;font style=&quot;font-size: 12px&quot;&gt;HAS_INPUT&lt;/font&gt;" style="edgeStyle=none;html=1;fontSize=14;" parent="1" source="233" target="234" edge="1">
                    <mxGeometry relative="1" as="geometry"/>
                </mxCell>
                <mxCell id="230" value="HAS_OUTPUT" style="edgeStyle=none;html=1;fontSize=12;" parent="1" source="233" target="235" edge="1">
                    <mxGeometry relative="1" as="geometry"/>
                </mxCell>
                <mxCell id="231" value="IMPLEMENTED" style="edgeStyle=none;html=1;" parent="1" source="233" target="236" edge="1">
                    <mxGeometry relative="1" as="geometry"/>
                </mxCell>
                <mxCell id="232" value="&lt;span style=&quot;font-size: 12px&quot;&gt;HAS_INPUT&lt;/span&gt;" style="edgeStyle=none;html=1;" parent="1" source="233" target="237" edge="1">
                    <mxGeometry relative="1" as="geometry"/>
                </mxCell>
                <mxCell id="233" value="&lt;font style=&quot;font-size: 14px&quot;&gt;&lt;b&gt;Function&lt;/b&gt;&lt;/font&gt;&lt;br&gt;- name: &quot;equality&quot;&lt;br&gt;- uuid: &quot;2cdda6d3-8443-4402-b261-fd37adbf835c&quot;" style="ellipse;whiteSpace=wrap;html=1;aspect=fixed;fillColor=#76608a;fontColor=#ffffff;strokeColor=#432D57;" parent="1" vertex="1">
                    <mxGeometry x="1040" y="3120" width="160" height="160" as="geometry"/>
                </mxCell>
                <mxCell id="234" value="&lt;font style=&quot;font-size: 14px&quot;&gt;&lt;b&gt;Input&lt;/b&gt;&lt;/font&gt;&lt;br&gt;- name: &quot;a&quot;" style="ellipse;whiteSpace=wrap;html=1;aspect=fixed;fillColor=#76608a;fontColor=#ffffff;strokeColor=#432D57;" parent="1" vertex="1">
                    <mxGeometry x="800" y="3140" width="120" height="120" as="geometry"/>
                </mxCell>
                <mxCell id="235" value="&lt;font style=&quot;font-size: 14px&quot;&gt;&lt;b&gt;Output&lt;/b&gt;&lt;/font&gt;&lt;br&gt;- name: &quot;result&quot;" style="ellipse;whiteSpace=wrap;html=1;aspect=fixed;fillColor=#76608a;fontColor=#ffffff;strokeColor=#432D57;" parent="1" vertex="1">
                    <mxGeometry x="1320" y="3140" width="120" height="120" as="geometry"/>
                </mxCell>
                <mxCell id="236" value="&lt;font style=&quot;font-size: 14px&quot;&gt;&lt;b&gt;NativeCall&lt;/b&gt;&lt;/font&gt;&lt;br&gt;- cypher: &quot;RETURN a = b AS result&quot;" style="ellipse;whiteSpace=wrap;html=1;aspect=fixed;fillColor=#6d8764;fontColor=#ffffff;strokeColor=#3A5431;" parent="1" vertex="1">
                    <mxGeometry x="1040" y="3360" width="160" height="160" as="geometry"/>
                </mxCell>
                <mxCell id="237" value="&lt;font style=&quot;font-size: 14px&quot;&gt;&lt;b&gt;Input&lt;/b&gt;&lt;/font&gt;&lt;br&gt;- name: &quot;b&quot;" style="ellipse;whiteSpace=wrap;html=1;aspect=fixed;fillColor=#76608a;fontColor=#ffffff;strokeColor=#432D57;" parent="1" vertex="1">
                    <mxGeometry x="800" y="3340" width="120" height="120" as="geometry"/>
                </mxCell>
                <mxCell id="238" value="&lt;font style=&quot;font-size: 12px&quot;&gt;HAS_INPUT&lt;/font&gt;" style="edgeStyle=none;html=1;fontSize=14;" parent="1" source="242" target="243" edge="1">
                    <mxGeometry relative="1" as="geometry"/>
                </mxCell>
                <mxCell id="239" value="HAS_OUTPUT" style="edgeStyle=none;html=1;fontSize=12;" parent="1" source="242" target="244" edge="1">
                    <mxGeometry relative="1" as="geometry"/>
                </mxCell>
                <mxCell id="240" value="IMPLEMENTED" style="edgeStyle=none;html=1;" parent="1" source="242" target="245" edge="1">
                    <mxGeometry relative="1" as="geometry"/>
                </mxCell>
                <mxCell id="241" value="&lt;span style=&quot;font-size: 12px&quot;&gt;HAS_INPUT&lt;/span&gt;" style="edgeStyle=none;html=1;" parent="1" source="242" target="246" edge="1">
                    <mxGeometry relative="1" as="geometry"/>
                </mxCell>
                <mxCell id="242" value="&lt;font style=&quot;font-size: 14px&quot;&gt;&lt;b&gt;Function&lt;/b&gt;&lt;/font&gt;&lt;br&gt;- name: &quot;inequality&quot;&lt;br&gt;- uuid: &quot;714c304b-4c22-495b-a9cd-a429539d7c18&quot;" style="ellipse;whiteSpace=wrap;html=1;aspect=fixed;fillColor=#76608a;fontColor=#ffffff;strokeColor=#432D57;" parent="1" vertex="1">
                    <mxGeometry x="1040" y="2680" width="160" height="160" as="geometry"/>
                </mxCell>
                <mxCell id="243" value="&lt;font style=&quot;font-size: 14px&quot;&gt;&lt;b&gt;Input&lt;/b&gt;&lt;/font&gt;&lt;br&gt;- name: &quot;a&quot;" style="ellipse;whiteSpace=wrap;html=1;aspect=fixed;fillColor=#76608a;fontColor=#ffffff;strokeColor=#432D57;" parent="1" vertex="1">
                    <mxGeometry x="800" y="2700" width="120" height="120" as="geometry"/>
                </mxCell>
                <mxCell id="244" value="&lt;font style=&quot;font-size: 14px&quot;&gt;&lt;b&gt;Output&lt;/b&gt;&lt;/font&gt;&lt;br&gt;- name: &quot;result&quot;" style="ellipse;whiteSpace=wrap;html=1;aspect=fixed;fillColor=#76608a;fontColor=#ffffff;strokeColor=#432D57;" parent="1" vertex="1">
                    <mxGeometry x="1320" y="2700" width="120" height="120" as="geometry"/>
                </mxCell>
                <mxCell id="245" value="&lt;font style=&quot;font-size: 14px&quot;&gt;&lt;b&gt;NativeCall&lt;/b&gt;&lt;/font&gt;&lt;br&gt;- cypher: &quot;RETURN a &amp;lt;&amp;gt; b AS result&quot;" style="ellipse;whiteSpace=wrap;html=1;aspect=fixed;fillColor=#6d8764;fontColor=#ffffff;strokeColor=#3A5431;" parent="1" vertex="1">
                    <mxGeometry x="1040" y="2920" width="160" height="160" as="geometry"/>
                </mxCell>
                <mxCell id="246" value="&lt;font style=&quot;font-size: 14px&quot;&gt;&lt;b&gt;Input&lt;/b&gt;&lt;/font&gt;&lt;br&gt;- name: &quot;b&quot;" style="ellipse;whiteSpace=wrap;html=1;aspect=fixed;fillColor=#76608a;fontColor=#ffffff;strokeColor=#432D57;" parent="1" vertex="1">
                    <mxGeometry x="800" y="2900" width="120" height="120" as="geometry"/>
                </mxCell>
                <mxCell id="247" value="&lt;font style=&quot;font-size: 12px&quot;&gt;HAS_INPUT&lt;/font&gt;" style="edgeStyle=none;html=1;fontSize=14;" parent="1" source="251" target="252" edge="1">
                    <mxGeometry relative="1" as="geometry"/>
                </mxCell>
                <mxCell id="248" value="HAS_OUTPUT" style="edgeStyle=none;html=1;fontSize=12;" parent="1" source="251" target="253" edge="1">
                    <mxGeometry relative="1" as="geometry"/>
                </mxCell>
                <mxCell id="249" value="IMPLEMENTED" style="edgeStyle=none;html=1;" parent="1" source="251" target="254" edge="1">
                    <mxGeometry relative="1" as="geometry"/>
                </mxCell>
                <mxCell id="250" value="&lt;span style=&quot;font-size: 12px&quot;&gt;HAS_INPUT&lt;/span&gt;" style="edgeStyle=none;html=1;" parent="1" source="251" target="255" edge="1">
                    <mxGeometry relative="1" as="geometry"/>
                </mxCell>
                <mxCell id="251" value="&lt;font style=&quot;font-size: 14px&quot;&gt;&lt;b&gt;Function&lt;/b&gt;&lt;/font&gt;&lt;br&gt;- name: &quot;less than&quot;&lt;br&gt;- uuid: &quot;d8a3889c-fe81-40ca-a1b1-f0b49c8c5c8e&quot;" style="ellipse;whiteSpace=wrap;html=1;aspect=fixed;fillColor=#76608a;fontColor=#ffffff;strokeColor=#432D57;" parent="1" vertex="1">
                    <mxGeometry x="1040" y="40" width="160" height="160" as="geometry"/>
                </mxCell>
                <mxCell id="252" value="&lt;font style=&quot;font-size: 14px&quot;&gt;&lt;b&gt;Input&lt;/b&gt;&lt;/font&gt;&lt;br&gt;- name: &quot;a&quot;" style="ellipse;whiteSpace=wrap;html=1;aspect=fixed;fillColor=#76608a;fontColor=#ffffff;strokeColor=#432D57;" parent="1" vertex="1">
                    <mxGeometry x="800" y="60" width="120" height="120" as="geometry"/>
                </mxCell>
                <mxCell id="253" value="&lt;font style=&quot;font-size: 14px&quot;&gt;&lt;b&gt;Output&lt;/b&gt;&lt;/font&gt;&lt;br&gt;- name: &quot;result&quot;" style="ellipse;whiteSpace=wrap;html=1;aspect=fixed;fillColor=#76608a;fontColor=#ffffff;strokeColor=#432D57;" parent="1" vertex="1">
                    <mxGeometry x="1320" y="60" width="120" height="120" as="geometry"/>
                </mxCell>
                <mxCell id="254" value="&lt;font style=&quot;font-size: 14px&quot;&gt;&lt;b&gt;NativeCall&lt;/b&gt;&lt;/font&gt;&lt;br&gt;- cypher: &quot;RETURN a &amp;lt; b AS result&quot;" style="ellipse;whiteSpace=wrap;html=1;aspect=fixed;fillColor=#6d8764;fontColor=#ffffff;strokeColor=#3A5431;" parent="1" vertex="1">
                    <mxGeometry x="1040" y="280" width="160" height="160" as="geometry"/>
                </mxCell>
                <mxCell id="255" value="&lt;font style=&quot;font-size: 14px&quot;&gt;&lt;b&gt;Input&lt;/b&gt;&lt;/font&gt;&lt;br&gt;- name: &quot;b&quot;" style="ellipse;whiteSpace=wrap;html=1;aspect=fixed;fillColor=#76608a;fontColor=#ffffff;strokeColor=#432D57;" parent="1" vertex="1">
                    <mxGeometry x="800" y="260" width="120" height="120" as="geometry"/>
                </mxCell>
                <mxCell id="256" value="&lt;font style=&quot;font-size: 12px&quot;&gt;HAS_INPUT&lt;/font&gt;" style="edgeStyle=none;html=1;fontSize=14;" parent="1" source="260" target="261" edge="1">
                    <mxGeometry relative="1" as="geometry"/>
                </mxCell>
                <mxCell id="257" value="HAS_OUTPUT" style="edgeStyle=none;html=1;fontSize=12;" parent="1" source="260" target="262" edge="1">
                    <mxGeometry relative="1" as="geometry"/>
                </mxCell>
                <mxCell id="258" value="IMPLEMENTED" style="edgeStyle=none;html=1;" parent="1" source="260" target="263" edge="1">
                    <mxGeometry relative="1" as="geometry"/>
                </mxCell>
                <mxCell id="259" value="&lt;span style=&quot;font-size: 12px&quot;&gt;HAS_INPUT&lt;/span&gt;" style="edgeStyle=none;html=1;" parent="1" source="260" target="264" edge="1">
                    <mxGeometry relative="1" as="geometry"/>
                </mxCell>
                <mxCell id="260" value="&lt;font style=&quot;font-size: 14px&quot;&gt;&lt;b&gt;Function&lt;/b&gt;&lt;/font&gt;&lt;br&gt;- name: &quot;greater than&quot;&lt;br&gt;- uuid: &quot;2c89ffa9-1dd5-4280-9bbc-77e170705c7d&quot;" style="ellipse;whiteSpace=wrap;html=1;aspect=fixed;fillColor=#76608a;fontColor=#ffffff;strokeColor=#432D57;" parent="1" vertex="1">
                    <mxGeometry x="1040" y="480" width="160" height="160" as="geometry"/>
                </mxCell>
                <mxCell id="261" value="&lt;font style=&quot;font-size: 14px&quot;&gt;&lt;b&gt;Input&lt;/b&gt;&lt;/font&gt;&lt;br&gt;- name: &quot;a&quot;" style="ellipse;whiteSpace=wrap;html=1;aspect=fixed;fillColor=#76608a;fontColor=#ffffff;strokeColor=#432D57;" parent="1" vertex="1">
                    <mxGeometry x="800" y="500" width="120" height="120" as="geometry"/>
                </mxCell>
                <mxCell id="262" value="&lt;font style=&quot;font-size: 14px&quot;&gt;&lt;b&gt;Output&lt;/b&gt;&lt;/font&gt;&lt;br&gt;- name: &quot;result&quot;" style="ellipse;whiteSpace=wrap;html=1;aspect=fixed;fillColor=#76608a;fontColor=#ffffff;strokeColor=#432D57;" parent="1" vertex="1">
                    <mxGeometry x="1320" y="500" width="120" height="120" as="geometry"/>
                </mxCell>
                <mxCell id="263" value="&lt;font style=&quot;font-size: 14px&quot;&gt;&lt;b&gt;NativeCall&lt;/b&gt;&lt;/font&gt;&lt;br&gt;- cypher: &quot;RETURN a &amp;gt; b AS result&quot;" style="ellipse;whiteSpace=wrap;html=1;aspect=fixed;fillColor=#6d8764;fontColor=#ffffff;strokeColor=#3A5431;" parent="1" vertex="1">
                    <mxGeometry x="1040" y="720" width="160" height="160" as="geometry"/>
                </mxCell>
                <mxCell id="264" value="&lt;font style=&quot;font-size: 14px&quot;&gt;&lt;b&gt;Input&lt;/b&gt;&lt;/font&gt;&lt;br&gt;- name: &quot;b&quot;" style="ellipse;whiteSpace=wrap;html=1;aspect=fixed;fillColor=#76608a;fontColor=#ffffff;strokeColor=#432D57;" parent="1" vertex="1">
                    <mxGeometry x="800" y="700" width="120" height="120" as="geometry"/>
                </mxCell>
                <mxCell id="283" value="&lt;font style=&quot;font-size: 12px&quot;&gt;HAS_INPUT&lt;/font&gt;" style="edgeStyle=none;html=1;fontSize=14;" parent="1" source="287" target="288" edge="1">
                    <mxGeometry relative="1" as="geometry"/>
                </mxCell>
                <mxCell id="284" value="HAS_OUTPUT" style="edgeStyle=none;html=1;fontSize=12;" parent="1" source="287" target="289" edge="1">
                    <mxGeometry relative="1" as="geometry"/>
                </mxCell>
                <mxCell id="285" value="IMPLEMENTED" style="edgeStyle=none;html=1;" parent="1" source="287" target="290" edge="1">
                    <mxGeometry relative="1" as="geometry"/>
                </mxCell>
                <mxCell id="286" value="&lt;span style=&quot;font-size: 12px&quot;&gt;HAS_INPUT&lt;/span&gt;" style="edgeStyle=none;html=1;" parent="1" source="287" target="291" edge="1">
                    <mxGeometry relative="1" as="geometry"/>
                </mxCell>
                <mxCell id="287" value="&lt;font style=&quot;font-size: 14px&quot;&gt;&lt;b&gt;Function&lt;/b&gt;&lt;/font&gt;&lt;br&gt;- name: &quot;less than or equal&quot;&lt;br&gt;- uuid: &quot;0b85ef98-e3a4-47e6-be9c-190c2a5810ef&quot;" style="ellipse;whiteSpace=wrap;html=1;aspect=fixed;fillColor=#76608a;fontColor=#ffffff;strokeColor=#432D57;" parent="1" vertex="1">
                    <mxGeometry x="1040" y="920" width="160" height="160" as="geometry"/>
                </mxCell>
                <mxCell id="288" value="&lt;font style=&quot;font-size: 14px&quot;&gt;&lt;b&gt;Input&lt;/b&gt;&lt;/font&gt;&lt;br&gt;- name: &quot;a&quot;" style="ellipse;whiteSpace=wrap;html=1;aspect=fixed;fillColor=#76608a;fontColor=#ffffff;strokeColor=#432D57;" parent="1" vertex="1">
                    <mxGeometry x="800" y="940" width="120" height="120" as="geometry"/>
                </mxCell>
                <mxCell id="289" value="&lt;font style=&quot;font-size: 14px&quot;&gt;&lt;b&gt;Output&lt;/b&gt;&lt;/font&gt;&lt;br&gt;- name: &quot;result&quot;" style="ellipse;whiteSpace=wrap;html=1;aspect=fixed;fillColor=#76608a;fontColor=#ffffff;strokeColor=#432D57;" parent="1" vertex="1">
                    <mxGeometry x="1320" y="940" width="120" height="120" as="geometry"/>
                </mxCell>
                <mxCell id="290" value="&lt;font style=&quot;font-size: 14px&quot;&gt;&lt;b&gt;NativeCall&lt;/b&gt;&lt;/font&gt;&lt;br&gt;- cypher: &quot;RETURN a &amp;lt;= b AS result&quot;" style="ellipse;whiteSpace=wrap;html=1;aspect=fixed;fillColor=#6d8764;fontColor=#ffffff;strokeColor=#3A5431;" parent="1" vertex="1">
                    <mxGeometry x="1040" y="1160" width="160" height="160" as="geometry"/>
                </mxCell>
                <mxCell id="291" value="&lt;font style=&quot;font-size: 14px&quot;&gt;&lt;b&gt;Input&lt;/b&gt;&lt;/font&gt;&lt;br&gt;- name: &quot;b&quot;" style="ellipse;whiteSpace=wrap;html=1;aspect=fixed;fillColor=#76608a;fontColor=#ffffff;strokeColor=#432D57;" parent="1" vertex="1">
                    <mxGeometry x="800" y="1140" width="120" height="120" as="geometry"/>
                </mxCell>
                <mxCell id="292" value="&lt;font style=&quot;font-size: 12px&quot;&gt;HAS_INPUT&lt;/font&gt;" style="edgeStyle=none;html=1;fontSize=14;" parent="1" source="296" target="297" edge="1">
                    <mxGeometry relative="1" as="geometry"/>
                </mxCell>
                <mxCell id="293" value="HAS_OUTPUT" style="edgeStyle=none;html=1;fontSize=12;" parent="1" source="296" target="298" edge="1">
                    <mxGeometry relative="1" as="geometry"/>
                </mxCell>
                <mxCell id="294" value="IMPLEMENTED" style="edgeStyle=none;html=1;" parent="1" source="296" target="299" edge="1">
                    <mxGeometry relative="1" as="geometry"/>
                </mxCell>
                <mxCell id="295" value="&lt;span style=&quot;font-size: 12px&quot;&gt;HAS_INPUT&lt;/span&gt;" style="edgeStyle=none;html=1;" parent="1" source="296" target="300" edge="1">
                    <mxGeometry relative="1" as="geometry"/>
                </mxCell>
                <mxCell id="296" value="&lt;font style=&quot;font-size: 14px&quot;&gt;&lt;b&gt;Function&lt;/b&gt;&lt;/font&gt;&lt;br&gt;- name: &quot;greater than or equal&quot;&lt;br&gt;- uuid: &quot;8235b2e9-ab62-4a08-a059-3197875ccaff&quot;" style="ellipse;whiteSpace=wrap;html=1;aspect=fixed;fillColor=#76608a;fontColor=#ffffff;strokeColor=#432D57;" parent="1" vertex="1">
                    <mxGeometry x="1040" y="1360" width="160" height="160" as="geometry"/>
                </mxCell>
                <mxCell id="297" value="&lt;font style=&quot;font-size: 14px&quot;&gt;&lt;b&gt;Input&lt;/b&gt;&lt;/font&gt;&lt;br&gt;- name: &quot;a&quot;" style="ellipse;whiteSpace=wrap;html=1;aspect=fixed;fillColor=#76608a;fontColor=#ffffff;strokeColor=#432D57;" parent="1" vertex="1">
                    <mxGeometry x="800" y="1380" width="120" height="120" as="geometry"/>
                </mxCell>
                <mxCell id="298" value="&lt;font style=&quot;font-size: 14px&quot;&gt;&lt;b&gt;Output&lt;/b&gt;&lt;/font&gt;&lt;br&gt;- name: &quot;result&quot;" style="ellipse;whiteSpace=wrap;html=1;aspect=fixed;fillColor=#76608a;fontColor=#ffffff;strokeColor=#432D57;" parent="1" vertex="1">
                    <mxGeometry x="1320" y="1380" width="120" height="120" as="geometry"/>
                </mxCell>
                <mxCell id="299" value="&lt;font style=&quot;font-size: 14px&quot;&gt;&lt;b&gt;NativeCall&lt;/b&gt;&lt;/font&gt;&lt;br&gt;- cypher: &quot;RETURN a &amp;gt;= b AS result&quot;" style="ellipse;whiteSpace=wrap;html=1;aspect=fixed;fillColor=#6d8764;fontColor=#ffffff;strokeColor=#3A5431;" parent="1" vertex="1">
                    <mxGeometry x="1040" y="1600" width="160" height="160" as="geometry"/>
                </mxCell>
                <mxCell id="300" value="&lt;font style=&quot;font-size: 14px&quot;&gt;&lt;b&gt;Input&lt;/b&gt;&lt;/font&gt;&lt;br&gt;- name: &quot;b&quot;" style="ellipse;whiteSpace=wrap;html=1;aspect=fixed;fillColor=#76608a;fontColor=#ffffff;strokeColor=#432D57;" parent="1" vertex="1">
                    <mxGeometry x="800" y="1580" width="120" height="120" as="geometry"/>
                </mxCell>
                <mxCell id="301" value="&lt;font style=&quot;font-size: 12px&quot;&gt;HAS_INPUT&lt;/font&gt;" style="edgeStyle=none;html=1;fontSize=14;" parent="1" source="305" target="306" edge="1">
                    <mxGeometry relative="1" as="geometry"/>
                </mxCell>
                <mxCell id="302" value="HAS_OUTPUT" style="edgeStyle=none;html=1;fontSize=12;" parent="1" source="305" target="307" edge="1">
                    <mxGeometry relative="1" as="geometry"/>
                </mxCell>
                <mxCell id="303" value="IMPLEMENTED" style="edgeStyle=none;html=1;" parent="1" source="305" target="308" edge="1">
                    <mxGeometry relative="1" as="geometry"/>
                </mxCell>
                <mxCell id="305" value="&lt;font style=&quot;font-size: 14px&quot;&gt;&lt;b&gt;Function&lt;/b&gt;&lt;/font&gt;&lt;br&gt;- name: &quot;is null&quot;&lt;br&gt;- uuid: &quot;fac9b3a3-b3a1-4bd3-8080-2632c0955cd0&quot;" style="ellipse;whiteSpace=wrap;html=1;aspect=fixed;fillColor=#76608a;fontColor=#ffffff;strokeColor=#432D57;" parent="1" vertex="1">
                    <mxGeometry x="1040" y="1800" width="160" height="160" as="geometry"/>
                </mxCell>
                <mxCell id="306" value="&lt;font style=&quot;font-size: 14px&quot;&gt;&lt;b&gt;Input&lt;/b&gt;&lt;/font&gt;&lt;br&gt;- name: &quot;a&quot;" style="ellipse;whiteSpace=wrap;html=1;aspect=fixed;fillColor=#76608a;fontColor=#ffffff;strokeColor=#432D57;" parent="1" vertex="1">
                    <mxGeometry x="800" y="1820" width="120" height="120" as="geometry"/>
                </mxCell>
                <mxCell id="307" value="&lt;font style=&quot;font-size: 14px&quot;&gt;&lt;b&gt;Output&lt;/b&gt;&lt;/font&gt;&lt;br&gt;- name: &quot;result&quot;" style="ellipse;whiteSpace=wrap;html=1;aspect=fixed;fillColor=#76608a;fontColor=#ffffff;strokeColor=#432D57;" parent="1" vertex="1">
                    <mxGeometry x="1320" y="1820" width="120" height="120" as="geometry"/>
                </mxCell>
                <mxCell id="308" value="&lt;font style=&quot;font-size: 14px&quot;&gt;&lt;b&gt;NativeCall&lt;/b&gt;&lt;/font&gt;&lt;br&gt;- cypher: &quot;RETURN a IS NULL AS result&quot;" style="ellipse;whiteSpace=wrap;html=1;aspect=fixed;fillColor=#6d8764;fontColor=#ffffff;strokeColor=#3A5431;" parent="1" vertex="1">
                    <mxGeometry x="1040" y="2040" width="160" height="160" as="geometry"/>
                </mxCell>
                <mxCell id="310" value="&lt;font style=&quot;font-size: 12px&quot;&gt;HAS_INPUT&lt;/font&gt;" style="edgeStyle=none;html=1;fontSize=14;" parent="1" source="313" target="314" edge="1">
                    <mxGeometry relative="1" as="geometry"/>
                </mxCell>
                <mxCell id="311" value="HAS_OUTPUT" style="edgeStyle=none;html=1;fontSize=12;" parent="1" source="313" target="315" edge="1">
                    <mxGeometry relative="1" as="geometry"/>
                </mxCell>
                <mxCell id="312" value="IMPLEMENTED" style="edgeStyle=none;html=1;" parent="1" source="313" target="316" edge="1">
                    <mxGeometry relative="1" as="geometry"/>
                </mxCell>
                <mxCell id="313" value="&lt;font style=&quot;font-size: 14px&quot;&gt;&lt;b&gt;Function&lt;/b&gt;&lt;/font&gt;&lt;br&gt;- name: &quot;is not null&quot;&lt;br&gt;- uuid: &quot;23d01b98-1f1f-4861-a3b4-500f3fb20339&quot;" style="ellipse;whiteSpace=wrap;html=1;aspect=fixed;fillColor=#76608a;fontColor=#ffffff;strokeColor=#432D57;" parent="1" vertex="1">
                    <mxGeometry x="1040" y="2240" width="160" height="160" as="geometry"/>
                </mxCell>
                <mxCell id="314" value="&lt;font style=&quot;font-size: 14px&quot;&gt;&lt;b&gt;Input&lt;/b&gt;&lt;/font&gt;&lt;br&gt;- name: &quot;a&quot;" style="ellipse;whiteSpace=wrap;html=1;aspect=fixed;fillColor=#76608a;fontColor=#ffffff;strokeColor=#432D57;" parent="1" vertex="1">
                    <mxGeometry x="800" y="2260" width="120" height="120" as="geometry"/>
                </mxCell>
                <mxCell id="315" value="&lt;font style=&quot;font-size: 14px&quot;&gt;&lt;b&gt;Output&lt;/b&gt;&lt;/font&gt;&lt;br&gt;- name: &quot;result&quot;" style="ellipse;whiteSpace=wrap;html=1;aspect=fixed;fillColor=#76608a;fontColor=#ffffff;strokeColor=#432D57;" parent="1" vertex="1">
                    <mxGeometry x="1320" y="2260" width="120" height="120" as="geometry"/>
                </mxCell>
                <mxCell id="316" value="&lt;font style=&quot;font-size: 14px&quot;&gt;&lt;b&gt;NativeCall&lt;/b&gt;&lt;/font&gt;&lt;br&gt;- cypher: &quot;RETURN a IS NOT NULL AS result&quot;" style="ellipse;whiteSpace=wrap;html=1;aspect=fixed;fillColor=#6d8764;fontColor=#ffffff;strokeColor=#3A5431;" parent="1" vertex="1">
                    <mxGeometry x="1040" y="2480" width="160" height="160" as="geometry"/>
                </mxCell>
                <mxCell id="317" value="&lt;font style=&quot;font-size: 12px&quot;&gt;HAS_INPUT&lt;/font&gt;" style="edgeStyle=none;html=1;fontSize=14;" parent="1" source="321" target="322" edge="1">
                    <mxGeometry relative="1" as="geometry"/>
                </mxCell>
                <mxCell id="318" value="HAS_OUTPUT" style="edgeStyle=none;html=1;fontSize=12;" parent="1" source="321" target="323" edge="1">
                    <mxGeometry relative="1" as="geometry"/>
                </mxCell>
                <mxCell id="319" value="IMPLEMENTED" style="edgeStyle=none;html=1;" parent="1" source="321" target="324" edge="1">
                    <mxGeometry relative="1" as="geometry"/>
                </mxCell>
                <mxCell id="320" value="&lt;span style=&quot;font-size: 12px&quot;&gt;HAS_INPUT&lt;/span&gt;" style="edgeStyle=none;html=1;" parent="1" source="321" target="325" edge="1">
                    <mxGeometry relative="1" as="geometry"/>
                </mxCell>
                <mxCell id="321" value="&lt;font style=&quot;font-size: 14px&quot;&gt;&lt;b&gt;Function&lt;/b&gt;&lt;/font&gt;&lt;br&gt;- name: &quot;contains&quot;&lt;br&gt;- uuid: &quot;f4044fb1-ba12-43e1-9d75-42cda556f750&quot;" style="ellipse;whiteSpace=wrap;html=1;aspect=fixed;fillColor=#76608a;fontColor=#ffffff;strokeColor=#432D57;" parent="1" vertex="1">
                    <mxGeometry x="2560" y="40" width="160" height="160" as="geometry"/>
                </mxCell>
                <mxCell id="322" value="&lt;font style=&quot;font-size: 14px&quot;&gt;&lt;b&gt;Input&lt;/b&gt;&lt;/font&gt;&lt;br&gt;- name: &quot;string&quot;" style="ellipse;whiteSpace=wrap;html=1;aspect=fixed;fillColor=#76608a;fontColor=#ffffff;strokeColor=#432D57;" parent="1" vertex="1">
                    <mxGeometry x="2320" y="60" width="120" height="120" as="geometry"/>
                </mxCell>
                <mxCell id="323" value="&lt;font style=&quot;font-size: 14px&quot;&gt;&lt;b&gt;Output&lt;/b&gt;&lt;/font&gt;&lt;br&gt;- name: &quot;result&quot;" style="ellipse;whiteSpace=wrap;html=1;aspect=fixed;fillColor=#76608a;fontColor=#ffffff;strokeColor=#432D57;" parent="1" vertex="1">
                    <mxGeometry x="2840" y="60" width="120" height="120" as="geometry"/>
                </mxCell>
                <mxCell id="324" value="&lt;font style=&quot;font-size: 14px&quot;&gt;&lt;b&gt;NativeCall&lt;/b&gt;&lt;/font&gt;&lt;br&gt;- cypher: &quot;RETURN string CONTAINS part AS result&quot;" style="ellipse;whiteSpace=wrap;html=1;aspect=fixed;fillColor=#6d8764;fontColor=#ffffff;strokeColor=#3A5431;" parent="1" vertex="1">
                    <mxGeometry x="2560" y="280" width="160" height="160" as="geometry"/>
                </mxCell>
                <mxCell id="325" value="&lt;font style=&quot;font-size: 14px&quot;&gt;&lt;b&gt;Input&lt;/b&gt;&lt;/font&gt;&lt;br&gt;- name: &quot;part&quot;" style="ellipse;whiteSpace=wrap;html=1;aspect=fixed;fillColor=#76608a;fontColor=#ffffff;strokeColor=#432D57;" parent="1" vertex="1">
                    <mxGeometry x="2320" y="260" width="120" height="120" as="geometry"/>
                </mxCell>
                <mxCell id="326" value="&lt;font style=&quot;font-size: 12px&quot;&gt;HAS_INPUT&lt;/font&gt;" style="edgeStyle=none;html=1;fontSize=14;" parent="1" source="330" target="331" edge="1">
                    <mxGeometry relative="1" as="geometry"/>
                </mxCell>
                <mxCell id="327" value="HAS_OUTPUT" style="edgeStyle=none;html=1;fontSize=12;" parent="1" source="330" target="332" edge="1">
                    <mxGeometry relative="1" as="geometry"/>
                </mxCell>
                <mxCell id="328" value="IMPLEMENTED" style="edgeStyle=none;html=1;" parent="1" source="330" target="333" edge="1">
                    <mxGeometry relative="1" as="geometry"/>
                </mxCell>
                <mxCell id="329" value="&lt;span style=&quot;font-size: 12px&quot;&gt;HAS_INPUT&lt;/span&gt;" style="edgeStyle=none;html=1;" parent="1" source="330" target="334" edge="1">
                    <mxGeometry relative="1" as="geometry"/>
                </mxCell>
                <mxCell id="330" value="&lt;font style=&quot;font-size: 14px&quot;&gt;&lt;b&gt;Function&lt;/b&gt;&lt;/font&gt;&lt;br&gt;- name: &quot;conjunction&quot;&lt;br&gt;- uuid: &quot;815be9c0-d982-42d9-b6a6-d4236f105dd5&quot;" style="ellipse;whiteSpace=wrap;html=1;aspect=fixed;fillColor=#76608a;fontColor=#ffffff;strokeColor=#432D57;" parent="1" vertex="1">
                    <mxGeometry x="1800" y="40" width="160" height="160" as="geometry"/>
                </mxCell>
                <mxCell id="331" value="&lt;font style=&quot;font-size: 14px&quot;&gt;&lt;b&gt;Input&lt;/b&gt;&lt;/font&gt;&lt;br&gt;- name: &quot;a&quot;" style="ellipse;whiteSpace=wrap;html=1;aspect=fixed;fillColor=#76608a;fontColor=#ffffff;strokeColor=#432D57;" parent="1" vertex="1">
                    <mxGeometry x="1560" y="60" width="120" height="120" as="geometry"/>
                </mxCell>
                <mxCell id="332" value="&lt;font style=&quot;font-size: 14px&quot;&gt;&lt;b&gt;Output&lt;/b&gt;&lt;/font&gt;&lt;br&gt;- name: &quot;result&quot;" style="ellipse;whiteSpace=wrap;html=1;aspect=fixed;fillColor=#76608a;fontColor=#ffffff;strokeColor=#432D57;" parent="1" vertex="1">
                    <mxGeometry x="2080" y="60" width="120" height="120" as="geometry"/>
                </mxCell>
                <mxCell id="333" value="&lt;font style=&quot;font-size: 14px&quot;&gt;&lt;b&gt;NativeCall&lt;/b&gt;&lt;/font&gt;&lt;br&gt;- cypher: &quot;RETURN a AND b AS result&quot;" style="ellipse;whiteSpace=wrap;html=1;aspect=fixed;fillColor=#6d8764;fontColor=#ffffff;strokeColor=#3A5431;" parent="1" vertex="1">
                    <mxGeometry x="1800" y="280" width="160" height="160" as="geometry"/>
                </mxCell>
                <mxCell id="334" value="&lt;font style=&quot;font-size: 14px&quot;&gt;&lt;b&gt;Input&lt;/b&gt;&lt;/font&gt;&lt;br&gt;- name: &quot;b&quot;" style="ellipse;whiteSpace=wrap;html=1;aspect=fixed;fillColor=#76608a;fontColor=#ffffff;strokeColor=#432D57;" parent="1" vertex="1">
                    <mxGeometry x="1560" y="260" width="120" height="120" as="geometry"/>
                </mxCell>
                <mxCell id="335" value="&lt;font style=&quot;font-size: 12px&quot;&gt;HAS_INPUT&lt;/font&gt;" style="edgeStyle=none;html=1;fontSize=14;" parent="1" source="339" target="340" edge="1">
                    <mxGeometry relative="1" as="geometry"/>
                </mxCell>
                <mxCell id="336" value="HAS_OUTPUT" style="edgeStyle=none;html=1;fontSize=12;" parent="1" source="339" target="341" edge="1">
                    <mxGeometry relative="1" as="geometry"/>
                </mxCell>
                <mxCell id="337" value="IMPLEMENTED" style="edgeStyle=none;html=1;" parent="1" source="339" target="342" edge="1">
                    <mxGeometry relative="1" as="geometry"/>
                </mxCell>
                <mxCell id="338" value="&lt;span style=&quot;font-size: 12px&quot;&gt;HAS_INPUT&lt;/span&gt;" style="edgeStyle=none;html=1;" parent="1" source="339" target="343" edge="1">
                    <mxGeometry relative="1" as="geometry"/>
                </mxCell>
                <mxCell id="339" value="&lt;font style=&quot;font-size: 14px&quot;&gt;&lt;b&gt;Function&lt;/b&gt;&lt;/font&gt;&lt;br&gt;- name: &quot;disjunction&quot;&lt;br&gt;- uuid: &quot;54e7d1b2-8346-41ea-82d5-cb8b7c0b6688&quot;" style="ellipse;whiteSpace=wrap;html=1;aspect=fixed;fillColor=#76608a;fontColor=#ffffff;strokeColor=#432D57;" parent="1" vertex="1">
                    <mxGeometry x="1800" y="480" width="160" height="160" as="geometry"/>
                </mxCell>
                <mxCell id="340" value="&lt;font style=&quot;font-size: 14px&quot;&gt;&lt;b&gt;Input&lt;/b&gt;&lt;/font&gt;&lt;br&gt;- name: &quot;a&quot;" style="ellipse;whiteSpace=wrap;html=1;aspect=fixed;fillColor=#76608a;fontColor=#ffffff;strokeColor=#432D57;" parent="1" vertex="1">
                    <mxGeometry x="1560" y="500" width="120" height="120" as="geometry"/>
                </mxCell>
                <mxCell id="341" value="&lt;font style=&quot;font-size: 14px&quot;&gt;&lt;b&gt;Output&lt;/b&gt;&lt;/font&gt;&lt;br&gt;- name: &quot;result&quot;" style="ellipse;whiteSpace=wrap;html=1;aspect=fixed;fillColor=#76608a;fontColor=#ffffff;strokeColor=#432D57;" parent="1" vertex="1">
                    <mxGeometry x="2080" y="500" width="120" height="120" as="geometry"/>
                </mxCell>
                <mxCell id="342" value="&lt;font style=&quot;font-size: 14px&quot;&gt;&lt;b&gt;NativeCall&lt;/b&gt;&lt;/font&gt;&lt;br&gt;- cypher: &quot;RETURN a OR b AS result&quot;" style="ellipse;whiteSpace=wrap;html=1;aspect=fixed;fillColor=#6d8764;fontColor=#ffffff;strokeColor=#3A5431;" parent="1" vertex="1">
                    <mxGeometry x="1800" y="720" width="160" height="160" as="geometry"/>
                </mxCell>
                <mxCell id="343" value="&lt;font style=&quot;font-size: 14px&quot;&gt;&lt;b&gt;Input&lt;/b&gt;&lt;/font&gt;&lt;br&gt;- name: &quot;b&quot;" style="ellipse;whiteSpace=wrap;html=1;aspect=fixed;fillColor=#76608a;fontColor=#ffffff;strokeColor=#432D57;" parent="1" vertex="1">
                    <mxGeometry x="1560" y="700" width="120" height="120" as="geometry"/>
                </mxCell>
                <mxCell id="362" value="&lt;font style=&quot;font-size: 12px&quot;&gt;HAS_INPUT&lt;/font&gt;" style="edgeStyle=none;html=1;fontSize=14;" parent="1" source="366" target="367" edge="1">
                    <mxGeometry relative="1" as="geometry"/>
                </mxCell>
                <mxCell id="363" value="HAS_OUTPUT" style="edgeStyle=none;html=1;fontSize=12;" parent="1" source="366" target="368" edge="1">
                    <mxGeometry relative="1" as="geometry"/>
                </mxCell>
                <mxCell id="364" value="IMPLEMENTED" style="edgeStyle=none;html=1;" parent="1" source="366" target="369" edge="1">
                    <mxGeometry relative="1" as="geometry"/>
                </mxCell>
                <mxCell id="365" value="&lt;span style=&quot;font-size: 12px&quot;&gt;HAS_INPUT&lt;/span&gt;" style="edgeStyle=none;html=1;" parent="1" source="366" target="370" edge="1">
                    <mxGeometry relative="1" as="geometry"/>
                </mxCell>
                <mxCell id="366" value="&lt;font style=&quot;font-size: 14px&quot;&gt;&lt;b&gt;Function&lt;/b&gt;&lt;/font&gt;&lt;br&gt;- name: &quot;exclusive disjunction&quot;&lt;br&gt;- uuid: &quot;8a248747-4458-49f1-a6fe-ec7a592d7fe2&quot;" style="ellipse;whiteSpace=wrap;html=1;aspect=fixed;fillColor=#76608a;fontColor=#ffffff;strokeColor=#432D57;" parent="1" vertex="1">
                    <mxGeometry x="1800" y="920" width="160" height="160" as="geometry"/>
                </mxCell>
                <mxCell id="367" value="&lt;font style=&quot;font-size: 14px&quot;&gt;&lt;b&gt;Input&lt;/b&gt;&lt;/font&gt;&lt;br&gt;- name: &quot;a&quot;" style="ellipse;whiteSpace=wrap;html=1;aspect=fixed;fillColor=#76608a;fontColor=#ffffff;strokeColor=#432D57;" parent="1" vertex="1">
                    <mxGeometry x="1560" y="940" width="120" height="120" as="geometry"/>
                </mxCell>
                <mxCell id="368" value="&lt;font style=&quot;font-size: 14px&quot;&gt;&lt;b&gt;Output&lt;/b&gt;&lt;/font&gt;&lt;br&gt;- name: &quot;result&quot;" style="ellipse;whiteSpace=wrap;html=1;aspect=fixed;fillColor=#76608a;fontColor=#ffffff;strokeColor=#432D57;" parent="1" vertex="1">
                    <mxGeometry x="2080" y="940" width="120" height="120" as="geometry"/>
                </mxCell>
                <mxCell id="369" value="&lt;font style=&quot;font-size: 14px&quot;&gt;&lt;b&gt;NativeCall&lt;/b&gt;&lt;/font&gt;&lt;br&gt;- cypher: &quot;RETURN a XOR b AS result&quot;" style="ellipse;whiteSpace=wrap;html=1;aspect=fixed;fillColor=#6d8764;fontColor=#ffffff;strokeColor=#3A5431;" parent="1" vertex="1">
                    <mxGeometry x="1800" y="1160" width="160" height="160" as="geometry"/>
                </mxCell>
                <mxCell id="370" value="&lt;font style=&quot;font-size: 14px&quot;&gt;&lt;b&gt;Input&lt;/b&gt;&lt;/font&gt;&lt;br&gt;- name: &quot;b&quot;" style="ellipse;whiteSpace=wrap;html=1;aspect=fixed;fillColor=#76608a;fontColor=#ffffff;strokeColor=#432D57;" parent="1" vertex="1">
                    <mxGeometry x="1560" y="1140" width="120" height="120" as="geometry"/>
                </mxCell>
                <mxCell id="371" value="&lt;font style=&quot;font-size: 12px&quot;&gt;HAS_INPUT&lt;/font&gt;" style="edgeStyle=none;html=1;fontSize=14;" parent="1" source="375" target="376" edge="1">
                    <mxGeometry relative="1" as="geometry"/>
                </mxCell>
                <mxCell id="372" value="HAS_OUTPUT" style="edgeStyle=none;html=1;fontSize=12;" parent="1" source="375" target="377" edge="1">
                    <mxGeometry relative="1" as="geometry"/>
                </mxCell>
                <mxCell id="373" value="IMPLEMENTED" style="edgeStyle=none;html=1;" parent="1" source="375" target="378" edge="1">
                    <mxGeometry relative="1" as="geometry"/>
                </mxCell>
                <mxCell id="375" value="&lt;font style=&quot;font-size: 14px&quot;&gt;&lt;b&gt;Function&lt;/b&gt;&lt;/font&gt;&lt;br&gt;- name: &quot;negation&quot;&lt;br&gt;- uuid: &quot;af416abe-047b-42c6-b81c-95482e4c7610&quot;" style="ellipse;whiteSpace=wrap;html=1;aspect=fixed;fillColor=#76608a;fontColor=#ffffff;strokeColor=#432D57;" parent="1" vertex="1">
                    <mxGeometry x="1800" y="1360" width="160" height="160" as="geometry"/>
                </mxCell>
                <mxCell id="376" value="&lt;font style=&quot;font-size: 14px&quot;&gt;&lt;b&gt;Input&lt;/b&gt;&lt;/font&gt;&lt;br&gt;- name: &quot;a&quot;" style="ellipse;whiteSpace=wrap;html=1;aspect=fixed;fillColor=#76608a;fontColor=#ffffff;strokeColor=#432D57;" parent="1" vertex="1">
                    <mxGeometry x="1560" y="1380" width="120" height="120" as="geometry"/>
                </mxCell>
                <mxCell id="377" value="&lt;font style=&quot;font-size: 14px&quot;&gt;&lt;b&gt;Output&lt;/b&gt;&lt;/font&gt;&lt;br&gt;- name: &quot;result&quot;" style="ellipse;whiteSpace=wrap;html=1;aspect=fixed;fillColor=#76608a;fontColor=#ffffff;strokeColor=#432D57;" parent="1" vertex="1">
                    <mxGeometry x="2080" y="1380" width="120" height="120" as="geometry"/>
                </mxCell>
                <mxCell id="378" value="&lt;font style=&quot;font-size: 14px&quot;&gt;&lt;b&gt;NativeCall&lt;/b&gt;&lt;/font&gt;&lt;br&gt;- cypher: &quot;RETURN NOT a AS result&quot;" style="ellipse;whiteSpace=wrap;html=1;aspect=fixed;fillColor=#6d8764;fontColor=#ffffff;strokeColor=#3A5431;" parent="1" vertex="1">
                    <mxGeometry x="1800" y="1600" width="160" height="160" as="geometry"/>
                </mxCell>
                <mxCell id="380" value="&lt;font style=&quot;font-size: 12px&quot;&gt;HAS_INPUT&lt;/font&gt;" style="edgeStyle=none;html=1;fontSize=14;" parent="1" source="384" target="385" edge="1">
                    <mxGeometry relative="1" as="geometry"/>
                </mxCell>
                <mxCell id="381" value="HAS_OUTPUT" style="edgeStyle=none;html=1;fontSize=12;" parent="1" source="384" target="386" edge="1">
                    <mxGeometry relative="1" as="geometry"/>
                </mxCell>
                <mxCell id="382" value="IMPLEMENTED" style="edgeStyle=none;html=1;" parent="1" source="384" target="387" edge="1">
                    <mxGeometry relative="1" as="geometry"/>
                </mxCell>
                <mxCell id="383" value="&lt;span style=&quot;font-size: 12px&quot;&gt;HAS_INPUT&lt;/span&gt;" style="edgeStyle=none;html=1;" parent="1" source="384" target="388" edge="1">
                    <mxGeometry relative="1" as="geometry"/>
                </mxCell>
                <mxCell id="384" value="&lt;font style=&quot;font-size: 14px&quot;&gt;&lt;b&gt;Function&lt;/b&gt;&lt;/font&gt;&lt;br&gt;- name: &quot;starts with&quot;&lt;br&gt;- uuid: &quot;a701f3d6-4108-41fa-9db2-7f3012666b6c&quot;" style="ellipse;whiteSpace=wrap;html=1;aspect=fixed;fillColor=#76608a;fontColor=#ffffff;strokeColor=#432D57;" parent="1" vertex="1">
                    <mxGeometry x="2560" y="480" width="160" height="160" as="geometry"/>
                </mxCell>
                <mxCell id="385" value="&lt;font style=&quot;font-size: 14px&quot;&gt;&lt;b&gt;Input&lt;/b&gt;&lt;/font&gt;&lt;br&gt;- name: &quot;string&quot;" style="ellipse;whiteSpace=wrap;html=1;aspect=fixed;fillColor=#76608a;fontColor=#ffffff;strokeColor=#432D57;" parent="1" vertex="1">
                    <mxGeometry x="2320" y="500" width="120" height="120" as="geometry"/>
                </mxCell>
                <mxCell id="386" value="&lt;font style=&quot;font-size: 14px&quot;&gt;&lt;b&gt;Output&lt;/b&gt;&lt;/font&gt;&lt;br&gt;- name: &quot;result&quot;" style="ellipse;whiteSpace=wrap;html=1;aspect=fixed;fillColor=#76608a;fontColor=#ffffff;strokeColor=#432D57;" parent="1" vertex="1">
                    <mxGeometry x="2840" y="500" width="120" height="120" as="geometry"/>
                </mxCell>
                <mxCell id="387" value="&lt;font style=&quot;font-size: 14px&quot;&gt;&lt;b&gt;NativeCall&lt;/b&gt;&lt;/font&gt;&lt;br&gt;- cypher: &quot;RETURN string STARTS WITH part AS result&quot;" style="ellipse;whiteSpace=wrap;html=1;aspect=fixed;fillColor=#6d8764;fontColor=#ffffff;strokeColor=#3A5431;" parent="1" vertex="1">
                    <mxGeometry x="2560" y="720" width="160" height="160" as="geometry"/>
                </mxCell>
                <mxCell id="388" value="&lt;font style=&quot;font-size: 14px&quot;&gt;&lt;b&gt;Input&lt;/b&gt;&lt;/font&gt;&lt;br&gt;- name: &quot;part&quot;" style="ellipse;whiteSpace=wrap;html=1;aspect=fixed;fillColor=#76608a;fontColor=#ffffff;strokeColor=#432D57;" parent="1" vertex="1">
                    <mxGeometry x="2320" y="700" width="120" height="120" as="geometry"/>
                </mxCell>
                <mxCell id="389" value="&lt;font style=&quot;font-size: 12px&quot;&gt;HAS_INPUT&lt;/font&gt;" style="edgeStyle=none;html=1;fontSize=14;" parent="1" source="393" target="394" edge="1">
                    <mxGeometry relative="1" as="geometry"/>
                </mxCell>
                <mxCell id="390" value="HAS_OUTPUT" style="edgeStyle=none;html=1;fontSize=12;" parent="1" source="393" target="395" edge="1">
                    <mxGeometry relative="1" as="geometry"/>
                </mxCell>
                <mxCell id="391" value="IMPLEMENTED" style="edgeStyle=none;html=1;" parent="1" source="393" target="396" edge="1">
                    <mxGeometry relative="1" as="geometry"/>
                </mxCell>
                <mxCell id="392" value="&lt;span style=&quot;font-size: 12px&quot;&gt;HAS_INPUT&lt;/span&gt;" style="edgeStyle=none;html=1;" parent="1" source="393" target="397" edge="1">
                    <mxGeometry relative="1" as="geometry"/>
                </mxCell>
                <mxCell id="393" value="&lt;font style=&quot;font-size: 14px&quot;&gt;&lt;b&gt;Function&lt;/b&gt;&lt;/font&gt;&lt;br&gt;- name: &quot;ends with&quot;&lt;br&gt;- uuid: &quot;e66e105e-da2b-44c4-8bed-da6c5d05949e&quot;" style="ellipse;whiteSpace=wrap;html=1;aspect=fixed;fillColor=#76608a;fontColor=#ffffff;strokeColor=#432D57;" parent="1" vertex="1">
                    <mxGeometry x="2560" y="920" width="160" height="160" as="geometry"/>
                </mxCell>
                <mxCell id="394" value="&lt;font style=&quot;font-size: 14px&quot;&gt;&lt;b&gt;Input&lt;/b&gt;&lt;/font&gt;&lt;br&gt;- name: &quot;string&quot;" style="ellipse;whiteSpace=wrap;html=1;aspect=fixed;fillColor=#76608a;fontColor=#ffffff;strokeColor=#432D57;" parent="1" vertex="1">
                    <mxGeometry x="2320" y="940" width="120" height="120" as="geometry"/>
                </mxCell>
                <mxCell id="395" value="&lt;font style=&quot;font-size: 14px&quot;&gt;&lt;b&gt;Output&lt;/b&gt;&lt;/font&gt;&lt;br&gt;- name: &quot;result&quot;" style="ellipse;whiteSpace=wrap;html=1;aspect=fixed;fillColor=#76608a;fontColor=#ffffff;strokeColor=#432D57;" parent="1" vertex="1">
                    <mxGeometry x="2840" y="940" width="120" height="120" as="geometry"/>
                </mxCell>
                <mxCell id="396" value="&lt;font style=&quot;font-size: 14px&quot;&gt;&lt;b&gt;NativeCall&lt;/b&gt;&lt;/font&gt;&lt;br&gt;- cypher: &quot;RETURN string ENDS WITH part AS result&quot;" style="ellipse;whiteSpace=wrap;html=1;aspect=fixed;fillColor=#6d8764;fontColor=#ffffff;strokeColor=#3A5431;" parent="1" vertex="1">
                    <mxGeometry x="2560" y="1160" width="160" height="160" as="geometry"/>
                </mxCell>
                <mxCell id="397" value="&lt;font style=&quot;font-size: 14px&quot;&gt;&lt;b&gt;Input&lt;/b&gt;&lt;/font&gt;&lt;br&gt;- name: &quot;part&quot;" style="ellipse;whiteSpace=wrap;html=1;aspect=fixed;fillColor=#76608a;fontColor=#ffffff;strokeColor=#432D57;" parent="1" vertex="1">
                    <mxGeometry x="2320" y="1140" width="120" height="120" as="geometry"/>
                </mxCell>
                <mxCell id="398" value="&lt;font style=&quot;font-size: 12px&quot;&gt;HAS_INPUT&lt;/font&gt;" style="edgeStyle=none;html=1;fontSize=14;" parent="1" source="402" target="403" edge="1">
                    <mxGeometry relative="1" as="geometry"/>
                </mxCell>
                <mxCell id="399" value="HAS_OUTPUT" style="edgeStyle=none;html=1;fontSize=12;" parent="1" source="402" target="404" edge="1">
                    <mxGeometry relative="1" as="geometry"/>
                </mxCell>
                <mxCell id="400" value="IMPLEMENTED" style="edgeStyle=none;html=1;" parent="1" source="402" target="405" edge="1">
                    <mxGeometry relative="1" as="geometry"/>
                </mxCell>
                <mxCell id="401" value="&lt;span style=&quot;font-size: 12px&quot;&gt;HAS_INPUT&lt;/span&gt;" style="edgeStyle=none;html=1;" parent="1" source="402" target="406" edge="1">
                    <mxGeometry relative="1" as="geometry"/>
                </mxCell>
                <mxCell id="402" value="&lt;font style=&quot;font-size: 14px&quot;&gt;&lt;b&gt;Function&lt;/b&gt;&lt;/font&gt;&lt;br&gt;- name: &quot;regex match&quot;&lt;br&gt;- uuid: &quot;8bdcbc8f-e704-46d5-a6f6-8a5cd18e59de&quot;" style="ellipse;whiteSpace=wrap;html=1;aspect=fixed;fillColor=#76608a;fontColor=#ffffff;strokeColor=#432D57;" parent="1" vertex="1">
                    <mxGeometry x="2560" y="1360" width="160" height="160" as="geometry"/>
                </mxCell>
                <mxCell id="403" value="&lt;font style=&quot;font-size: 14px&quot;&gt;&lt;b&gt;Input&lt;/b&gt;&lt;/font&gt;&lt;br&gt;- name: &quot;string&quot;" style="ellipse;whiteSpace=wrap;html=1;aspect=fixed;fillColor=#76608a;fontColor=#ffffff;strokeColor=#432D57;" parent="1" vertex="1">
                    <mxGeometry x="2320" y="1380" width="120" height="120" as="geometry"/>
                </mxCell>
                <mxCell id="404" value="&lt;font style=&quot;font-size: 14px&quot;&gt;&lt;b&gt;Output&lt;/b&gt;&lt;/font&gt;&lt;br&gt;- name: &quot;result&quot;" style="ellipse;whiteSpace=wrap;html=1;aspect=fixed;fillColor=#76608a;fontColor=#ffffff;strokeColor=#432D57;" parent="1" vertex="1">
                    <mxGeometry x="2840" y="1380" width="120" height="120" as="geometry"/>
                </mxCell>
                <mxCell id="405" value="&lt;font style=&quot;font-size: 14px&quot;&gt;&lt;b&gt;NativeCall&lt;/b&gt;&lt;/font&gt;&lt;br&gt;- cypher: &quot;RETURN string =~ regex AS result&quot;" style="ellipse;whiteSpace=wrap;html=1;aspect=fixed;fillColor=#6d8764;fontColor=#ffffff;strokeColor=#3A5431;" parent="1" vertex="1">
                    <mxGeometry x="2560" y="1600" width="160" height="160" as="geometry"/>
                </mxCell>
                <mxCell id="406" value="&lt;font style=&quot;font-size: 14px&quot;&gt;&lt;b&gt;Input&lt;/b&gt;&lt;/font&gt;&lt;br&gt;- name: &quot;regex&quot;" style="ellipse;whiteSpace=wrap;html=1;aspect=fixed;fillColor=#76608a;fontColor=#ffffff;strokeColor=#432D57;" parent="1" vertex="1">
                    <mxGeometry x="2320" y="1580" width="120" height="120" as="geometry"/>
                </mxCell>
                <mxCell id="407" value="Constant&lt;br&gt;- uuid: &quot;887bbe41-0520-47c7-b680-5af7584ec597&quot;&lt;br&gt;- value: true" style="ellipse;whiteSpace=wrap;html=1;aspect=fixed;fillColor=#fa6800;strokeColor=#C73500;fontColor=#000000;" vertex="1" parent="1">
                    <mxGeometry x="1540" y="3940" width="160" height="160" as="geometry"/>
                </mxCell>
                <mxCell id="408" value="Constant&lt;br&gt;- uuid: &quot;1a3c0958-cf8e-48d6-acb1-91ca98fec11c&quot;&lt;br&gt;- value: false" style="ellipse;whiteSpace=wrap;html=1;aspect=fixed;fillColor=#fa6800;strokeColor=#C73500;fontColor=#000000;" vertex="1" parent="1">
                    <mxGeometry x="2300" y="3940" width="160" height="160" as="geometry"/>
                </mxCell>
                <mxCell id="409" value="&lt;font style=&quot;font-size: 12px&quot;&gt;HAS_INPUT&lt;/font&gt;" style="edgeStyle=none;html=1;fontSize=14;" edge="1" parent="1" source="413" target="414">
                    <mxGeometry relative="1" as="geometry"/>
                </mxCell>
                <mxCell id="410" value="HAS_OUTPUT" style="edgeStyle=none;html=1;fontSize=12;" edge="1" parent="1" source="413" target="415">
                    <mxGeometry relative="1" as="geometry"/>
                </mxCell>
                <mxCell id="411" value="IMPLEMENTED" style="edgeStyle=none;html=1;" edge="1" parent="1" source="413" target="418">
                    <mxGeometry relative="1" as="geometry">
                        <mxPoint x="1880" y="2920" as="targetPoint"/>
                    </mxGeometry>
                </mxCell>
                <mxCell id="413" value="&lt;font style=&quot;font-size: 14px&quot;&gt;&lt;b&gt;Function&lt;/b&gt;&lt;/font&gt;&lt;br&gt;- name: &quot;is true&quot;&lt;br&gt;- uuid: &quot;d47447bf-4b0f-4537-b029-598359f91678&quot;" style="ellipse;whiteSpace=wrap;html=1;aspect=fixed;fillColor=#76608a;fontColor=#ffffff;strokeColor=#432D57;" vertex="1" parent="1">
                    <mxGeometry x="1800" y="2680" width="160" height="160" as="geometry"/>
                </mxCell>
                <mxCell id="414" value="&lt;font style=&quot;font-size: 14px&quot;&gt;&lt;b&gt;Input&lt;/b&gt;&lt;/font&gt;&lt;br&gt;- name: &quot;a&quot;" style="ellipse;whiteSpace=wrap;html=1;aspect=fixed;fillColor=#76608a;fontColor=#ffffff;strokeColor=#432D57;" vertex="1" parent="1">
                    <mxGeometry x="1560" y="2700" width="120" height="120" as="geometry"/>
                </mxCell>
                <mxCell id="415" value="&lt;font style=&quot;font-size: 14px&quot;&gt;&lt;b&gt;Output&lt;/b&gt;&lt;/font&gt;&lt;br&gt;- name: &quot;result&quot;" style="ellipse;whiteSpace=wrap;html=1;aspect=fixed;fillColor=#76608a;fontColor=#ffffff;strokeColor=#432D57;" vertex="1" parent="1">
                    <mxGeometry x="2080" y="2700" width="120" height="120" as="geometry"/>
                </mxCell>
                <mxCell id="419" value="EXECUTES" style="edgeStyle=none;html=1;" edge="1" parent="1" source="418" target="420">
                    <mxGeometry relative="1" as="geometry">
                        <mxPoint x="1740" y="3140" as="targetPoint"/>
                    </mxGeometry>
                </mxCell>
                <mxCell id="430" value="HAS_OUTPUT_BINDING" style="edgeStyle=none;html=1;" edge="1" parent="1" source="418" target="431">
                    <mxGeometry relative="1" as="geometry">
                        <mxPoint x="2250" y="3140" as="targetPoint"/>
                    </mxGeometry>
                </mxCell>
                <mxCell id="418" value="Map" style="ellipse;whiteSpace=wrap;html=1;aspect=fixed;fillColor=#fa6800;fontColor=#000000;strokeColor=#C73500;" vertex="1" parent="1">
                    <mxGeometry x="1820" y="2940" width="120" height="120" as="geometry"/>
                </mxCell>
                <mxCell id="421" value="USING" style="edgeStyle=none;html=1;" edge="1" parent="1" source="420" target="233">
                    <mxGeometry relative="1" as="geometry"/>
                </mxCell>
                <mxCell id="423" value="HAS_BINDING" style="edgeStyle=none;html=1;" edge="1" parent="1" source="420" target="422">
                    <mxGeometry relative="1" as="geometry"/>
                </mxCell>
                <mxCell id="427" value="HAS_BINDING" style="edgeStyle=none;html=1;" edge="1" parent="1" source="420" target="426">
                    <mxGeometry x="-0.3626" y="-2" relative="1" as="geometry">
                        <mxPoint as="offset"/>
                    </mxGeometry>
                </mxCell>
                <mxCell id="420" value="Call" style="ellipse;whiteSpace=wrap;html=1;aspect=fixed;fillColor=#fa6800;fontColor=#000000;strokeColor=#C73500;" vertex="1" parent="1">
                    <mxGeometry x="1820" y="3140" width="120" height="120" as="geometry"/>
                </mxCell>
                <mxCell id="424" value="BINDS_FROM" style="edgeStyle=none;html=1;" edge="1" parent="1" source="422" target="407">
                    <mxGeometry relative="1" as="geometry"/>
                </mxCell>
                <mxCell id="425" value="BINDS_TO" style="edgeStyle=none;html=1;" edge="1" parent="1" source="422" target="237">
                    <mxGeometry relative="1" as="geometry"/>
                </mxCell>
                <mxCell id="422" value="Binding" style="ellipse;whiteSpace=wrap;html=1;aspect=fixed;fillColor=#fa6800;fontColor=#000000;strokeColor=#C73500;" vertex="1" parent="1">
                    <mxGeometry x="1560" y="3580" width="120" height="120" as="geometry"/>
                </mxCell>
                <mxCell id="428" value="BINDS_FROM" style="edgeStyle=none;html=1;" edge="1" parent="1" source="426" target="414">
                    <mxGeometry relative="1" as="geometry"/>
                </mxCell>
                <mxCell id="429" value="BINDS_TO" style="edgeStyle=none;html=1;" edge="1" parent="1" source="426" target="234">
                    <mxGeometry relative="1" as="geometry"/>
                </mxCell>
                <mxCell id="426" value="Binding" style="ellipse;whiteSpace=wrap;html=1;aspect=fixed;fillColor=#fa6800;fontColor=#000000;strokeColor=#C73500;" vertex="1" parent="1">
                    <mxGeometry x="1560" y="3380" width="120" height="120" as="geometry"/>
                </mxCell>
                <mxCell id="432" value="BINDS_TO" style="edgeStyle=none;html=1;" edge="1" parent="1" source="431" target="415">
                    <mxGeometry relative="1" as="geometry"/>
                </mxCell>
                <mxCell id="433" value="BINDS_FROM" style="edgeStyle=none;html=1;" edge="1" parent="1" source="431" target="235">
                    <mxGeometry x="0.2802" y="-2" relative="1" as="geometry">
                        <mxPoint x="-1" as="offset"/>
                    </mxGeometry>
                </mxCell>
                <mxCell id="431" value="Binding" style="ellipse;whiteSpace=wrap;html=1;aspect=fixed;fillColor=#fa6800;fontColor=#000000;strokeColor=#C73500;" vertex="1" parent="1">
                    <mxGeometry x="2080" y="3380" width="120" height="120" as="geometry"/>
                </mxCell>
                <mxCell id="435" value="&lt;font style=&quot;font-size: 12px&quot;&gt;HAS_INPUT&lt;/font&gt;" style="edgeStyle=none;html=1;fontSize=14;" edge="1" parent="1" source="438" target="439">
                    <mxGeometry relative="1" as="geometry"/>
                </mxCell>
                <mxCell id="436" value="HAS_OUTPUT" style="edgeStyle=none;html=1;fontSize=12;" edge="1" parent="1" source="438" target="440">
                    <mxGeometry relative="1" as="geometry"/>
                </mxCell>
                <mxCell id="437" value="IMPLEMENTED" style="edgeStyle=none;html=1;" edge="1" parent="1" source="438" target="443">
                    <mxGeometry relative="1" as="geometry">
                        <mxPoint x="2640" y="2920" as="targetPoint"/>
                    </mxGeometry>
                </mxCell>
                <mxCell id="438" value="&lt;font style=&quot;font-size: 14px&quot;&gt;&lt;b&gt;Function&lt;/b&gt;&lt;/font&gt;&lt;br&gt;- name: &quot;is false&quot;&lt;br&gt;- uuid: &quot;227bfadc-8669-4fb8-8c09-3c0775dd7a02&quot;" style="ellipse;whiteSpace=wrap;html=1;aspect=fixed;fillColor=#76608a;fontColor=#ffffff;strokeColor=#432D57;" vertex="1" parent="1">
                    <mxGeometry x="2560" y="2680" width="160" height="160" as="geometry"/>
                </mxCell>
                <mxCell id="439" value="&lt;font style=&quot;font-size: 14px&quot;&gt;&lt;b&gt;Input&lt;/b&gt;&lt;/font&gt;&lt;br&gt;- name: &quot;a&quot;" style="ellipse;whiteSpace=wrap;html=1;aspect=fixed;fillColor=#76608a;fontColor=#ffffff;strokeColor=#432D57;" vertex="1" parent="1">
                    <mxGeometry x="2320" y="2700" width="120" height="120" as="geometry"/>
                </mxCell>
                <mxCell id="440" value="&lt;font style=&quot;font-size: 14px&quot;&gt;&lt;b&gt;Output&lt;/b&gt;&lt;/font&gt;&lt;br&gt;- name: &quot;result&quot;" style="ellipse;whiteSpace=wrap;html=1;aspect=fixed;fillColor=#76608a;fontColor=#ffffff;strokeColor=#432D57;" vertex="1" parent="1">
                    <mxGeometry x="2840" y="2700" width="120" height="120" as="geometry"/>
                </mxCell>
                <mxCell id="441" value="EXECUTES" style="edgeStyle=none;html=1;" edge="1" parent="1" source="443" target="446">
                    <mxGeometry relative="1" as="geometry">
                        <mxPoint x="2500" y="3140" as="targetPoint"/>
                    </mxGeometry>
                </mxCell>
                <mxCell id="442" value="HAS_OUTPUT_BINDING" style="edgeStyle=none;html=1;" edge="1" parent="1" source="443" target="451">
                    <mxGeometry relative="1" as="geometry">
                        <mxPoint x="3010" y="3140" as="targetPoint"/>
                    </mxGeometry>
                </mxCell>
                <mxCell id="443" value="Map" style="ellipse;whiteSpace=wrap;html=1;aspect=fixed;fillColor=#fa6800;fontColor=#000000;strokeColor=#C73500;" vertex="1" parent="1">
                    <mxGeometry x="2580" y="2940" width="120" height="120" as="geometry"/>
                </mxCell>
                <mxCell id="444" value="HAS_BINDING" style="edgeStyle=none;html=1;" edge="1" parent="1" source="446" target="447">
                    <mxGeometry relative="1" as="geometry"/>
                </mxCell>
                <mxCell id="445" value="HAS_BINDING" style="edgeStyle=none;html=1;" edge="1" parent="1" source="446" target="449">
                    <mxGeometry relative="1" as="geometry"/>
                </mxCell>
                <mxCell id="456" value="USING" style="edgeStyle=none;html=1;" edge="1" parent="1" source="446" target="233">
                    <mxGeometry x="-0.5507" relative="1" as="geometry">
                        <mxPoint as="offset"/>
                    </mxGeometry>
                </mxCell>
                <mxCell id="446" value="Call" style="ellipse;whiteSpace=wrap;html=1;aspect=fixed;fillColor=#fa6800;fontColor=#000000;strokeColor=#C73500;" vertex="1" parent="1">
                    <mxGeometry x="2580" y="3140" width="120" height="120" as="geometry"/>
                </mxCell>
                <mxCell id="452" value="BINDS_FROM" style="edgeStyle=none;html=1;" edge="1" parent="1" source="447" target="408">
                    <mxGeometry relative="1" as="geometry"/>
                </mxCell>
                <mxCell id="454" value="BINDS_TO" style="edgeStyle=none;html=1;" edge="1" parent="1" source="447" target="237">
                    <mxGeometry relative="1" as="geometry"/>
                </mxCell>
                <mxCell id="447" value="Binding" style="ellipse;whiteSpace=wrap;html=1;aspect=fixed;fillColor=#fa6800;fontColor=#000000;strokeColor=#C73500;" vertex="1" parent="1">
                    <mxGeometry x="2320" y="3580" width="120" height="120" as="geometry"/>
                </mxCell>
                <mxCell id="448" value="BINDS_FROM" style="edgeStyle=none;html=1;" edge="1" parent="1" source="449" target="439">
                    <mxGeometry relative="1" as="geometry"/>
                </mxCell>
                <mxCell id="453" value="BINDS_TO" style="edgeStyle=none;html=1;" edge="1" parent="1" source="449" target="234">
                    <mxGeometry relative="1" as="geometry"/>
                </mxCell>
                <mxCell id="449" value="Binding" style="ellipse;whiteSpace=wrap;html=1;aspect=fixed;fillColor=#fa6800;fontColor=#000000;strokeColor=#C73500;" vertex="1" parent="1">
                    <mxGeometry x="2320" y="3380" width="120" height="120" as="geometry"/>
                </mxCell>
                <mxCell id="450" value="BINDS_TO" style="edgeStyle=none;html=1;" edge="1" parent="1" source="451" target="440">
                    <mxGeometry relative="1" as="geometry"/>
                </mxCell>
                <mxCell id="455" value="BINDS_FROM" style="edgeStyle=none;html=1;" edge="1" parent="1" source="451" target="235">
                    <mxGeometry relative="1" as="geometry"/>
                </mxCell>
                <mxCell id="451" value="Binding" style="ellipse;whiteSpace=wrap;html=1;aspect=fixed;fillColor=#fa6800;fontColor=#000000;strokeColor=#C73500;" vertex="1" parent="1">
                    <mxGeometry x="2840" y="3380" width="120" height="120" as="geometry"/>
                </mxCell>
            </root>
        </mxGraphModel>
    </diagram>
</mxfile>